<?xml version="1.0" encoding="iso-8859-1"?>
<!-- Generator: Adobe Illustrator 19.0.0, SVG Export Plug-In . SVG Version: 6.00 Build 0)  -->
<svg version="1.1" id="Capa_1" xmlns="http://www.w3.org/2000/svg" xmlns:xlink="http://www.w3.org/1999/xlink" x="0px" y="0px"
	 viewBox="0 0 512 512" style="enable-background:new 0 0 512 512;" xml:space="preserve">
<g>
	<path style="fill:#A8AFF1;" d="M285,512h-60c-6.883,0-12.883-4.685-14.552-11.362l-14.491-57.963
		c-10.558-3.347-20.775-7.569-30.529-12.616l-51.203,30.722c-5.903,3.542-13.458,2.611-18.324-2.256l-42.426-42.427
		c-4.867-4.867-5.797-12.422-2.256-18.324l30.722-51.203c-5.047-9.754-9.268-19.968-12.615-30.528l-57.963-14.491
		C4.685,299.883,0,293.883,0,287v-60c0-6.883,4.685-12.883,11.362-14.552l57.963-14.491c3.347-10.558,7.569-20.775,12.616-30.529
		l-30.723-51.203c-3.541-5.902-2.611-13.457,2.256-18.324L95.9,55.475c4.868-4.867,12.422-5.797,18.323-2.256l51.206,30.722
		c9.735-5.038,19.931-9.253,30.461-12.595l14.532-59.883C212.056,4.736,218.078,0,225,0h60c6.922,0,12.944,4.736,14.577,11.463
		l14.532,59.883c10.53,3.342,20.726,7.558,30.461,12.595l51.206-30.722c5.9-3.541,13.456-2.611,18.323,2.256L456.525,97.9
		c4.867,4.867,5.797,12.422,2.256,18.324l-30.723,51.203c5.036,9.734,9.251,19.928,12.595,30.463l59.884,14.532
		C507.264,214.055,512,220.078,512,227v60c0,6.922-4.736,12.945-11.463,14.577l-59.884,14.533
		c-3.344,10.535-7.558,20.729-12.594,30.461l30.722,51.203c3.541,5.902,2.611,13.457-2.256,18.324L414.1,458.525
		c-4.867,4.867-12.423,5.797-18.324,2.256l-51.203-30.722c-9.754,5.047-19.972,9.269-30.529,12.616l-14.491,57.963
		C297.883,507.315,291.883,512,285,512z M236.712,482h36.576l13.736-54.944c1.321-5.288,5.408-9.443,10.674-10.852
		c13.996-3.746,27.356-9.269,39.709-16.415c4.72-2.731,10.552-2.685,15.229,0.122l48.532,29.119l25.863-25.864l-29.12-48.533
		c-2.807-4.677-2.853-10.509-0.121-15.229c7.145-12.348,12.667-25.707,16.413-39.705c1.419-5.301,5.62-9.405,10.953-10.699
		L482,275.205v-36.41L425.156,225c-5.333-1.294-9.534-5.397-10.953-10.699c-3.746-13.998-9.269-27.357-16.414-39.708
		c-2.73-4.721-2.684-10.552,0.122-15.229l29.12-48.533l-25.863-25.863l-48.535,29.12c-4.676,2.806-10.509,2.852-15.228,0.121
		c-12.358-7.149-25.718-12.671-39.706-16.414c-5.302-1.418-9.405-5.619-10.7-10.953L273.205,30h-36.41l-13.794,56.844
		c-1.295,5.333-5.398,9.534-10.7,10.953c-13.988,3.743-27.348,9.265-39.706,16.414c-4.721,2.731-10.553,2.684-15.228-0.121
		l-48.535-29.12l-25.863,25.863l29.12,48.533c2.806,4.677,2.853,10.508,0.122,15.229c-7.146,12.351-12.668,25.71-16.414,39.708
		c-1.409,5.265-5.564,9.352-10.853,10.674L30,238.712v36.577l54.944,13.736c5.288,1.322,9.443,5.409,10.853,10.674
		c3.746,13.998,9.269,27.357,16.413,39.705c2.731,4.721,2.686,10.552-0.121,15.229l-29.12,48.533l25.863,25.864l48.532-29.119
		c4.678-2.806,10.509-2.852,15.229-0.122c12.353,7.146,25.713,12.668,39.709,16.415c5.266,1.409,9.353,5.564,10.674,10.852
		L236.712,482z M497,287h0.01H497z"/>
	<path style="fill:#A8AFF1;" d="M255,362c-57.897,0-105-47.103-105-105s47.103-105,105-105s105,47.103,105,105S312.897,362,255,362z
		 M255,182c-41.355,0-75,33.645-75,75s33.645,75,75,75s75-33.645,75-75S296.355,182,255,182z"/>
</g>
<g>
</g>
<g>
</g>
<g>
</g>
<g>
</g>
<g>
</g>
<g>
</g>
<g>
</g>
<g>
</g>
<g>
</g>
<g>
</g>
<g>
</g>
<g>
</g>
<g>
</g>
<g>
</g>
<g>
</g>
</svg>
